<svg width="2016" height="379" viewBox="0 0 2016 379" fill="none" xmlns="http://www.w3.org/2000/svg">
<rect y="10" width="408" height="74" rx="37" fill="#D9D9D9"/>
<rect y="10" width="408" height="74" rx="37" fill="url(#paint0_linear_4_11)" fill-opacity="0.2"/>
<rect y="100" width="73" height="74" rx="36.5" fill="#D9D9D9"/>
<rect y="100" width="73" height="74" rx="36.5" fill="url(#paint1_linear_4_11)" fill-opacity="0.2"/>
<rect x="102" y="100" width="306" height="74" rx="37" fill="#D9D9D9"/>
<rect x="102" y="100" width="306" height="74" rx="37" fill="url(#paint2_linear_4_11)" fill-opacity="0.2"/>
<rect x="408" y="264" width="73" height="74" rx="36.5" transform="rotate(-180 408 264)" fill="#D9D9D9"/>
<rect x="408" y="264" width="73" height="74" rx="36.5" transform="rotate(-180 408 264)" fill="url(#paint3_linear_4_11)" fill-opacity="0.2"/>
<rect x="306" y="264" width="306" height="74" rx="37" transform="rotate(-180 306 264)" fill="#D9D9D9"/>
<rect x="306" y="264" width="306" height="74" rx="37" transform="rotate(-180 306 264)" fill="url(#paint4_linear_4_11)" fill-opacity="0.2"/>
<rect y="10" width="408" height="74" rx="37" fill="#D9D9D9"/>
<rect y="10" width="408" height="74" rx="37" fill="url(#paint5_linear_4_11)" fill-opacity="0.2"/>
<path d="M509.28 213L458.9 95.52H487.5L530.84 199.14H516.76L561.64 95.52H588.04L537.66 213H509.28ZM654.805 214.54C642.778 214.54 632.072 211.973 622.685 206.84C613.298 201.56 605.892 194.373 600.465 185.28C595.038 176.187 592.325 165.847 592.325 154.26C592.325 142.527 595.038 132.187 600.465 123.24C605.892 114.147 613.298 107.033 622.685 101.9C632.072 96.7667 642.778 94.2 654.805 94.2C666.978 94.2 677.758 96.7667 687.145 101.9C696.678 107.033 704.085 114.073 709.365 123.02C714.792 131.967 717.505 142.38 717.505 154.26C717.505 165.847 714.792 176.187 709.365 185.28C704.085 194.373 696.678 201.56 687.145 206.84C677.758 211.973 666.978 214.54 654.805 214.54ZM654.805 191C661.552 191 667.565 189.533 672.845 186.6C678.125 183.667 682.232 179.413 685.165 173.84C688.245 168.267 689.785 161.74 689.785 154.26C689.785 146.633 688.245 140.107 685.165 134.68C682.232 129.107 678.125 124.853 672.845 121.92C667.565 118.987 661.625 117.52 655.025 117.52C648.278 117.52 642.265 118.987 636.985 121.92C631.852 124.853 627.745 129.107 624.665 134.68C621.585 140.107 620.045 146.633 620.045 154.26C620.045 161.74 621.585 168.267 624.665 173.84C627.745 179.413 631.852 183.667 636.985 186.6C642.265 189.533 648.205 191 654.805 191ZM743.802 213V95.52H771.302V213H743.802ZM757.662 76.16C752.528 76.16 748.275 74.5467 744.902 71.32C741.675 68.0933 740.062 64.2067 740.062 59.66C740.062 54.9667 741.675 51.08 744.902 48C748.275 44.7733 752.528 43.16 757.662 43.16C762.795 43.16 766.975 44.7 770.202 47.78C773.575 50.7133 775.262 54.4533 775.262 59C775.262 63.84 773.648 67.9467 770.422 71.32C767.195 74.5467 762.942 76.16 757.662 76.16ZM861.295 214.54C848.975 214.54 837.975 211.973 828.295 206.84C818.762 201.56 811.282 194.373 805.855 185.28C800.429 176.187 797.715 165.847 797.715 154.26C797.715 142.527 800.429 132.187 805.855 123.24C811.282 114.147 818.762 107.033 828.295 101.9C837.975 96.7667 848.975 94.2 861.295 94.2C872.735 94.2 882.782 96.5467 891.435 101.24C900.235 105.787 906.909 112.533 911.455 121.48L890.335 133.8C886.815 128.227 882.489 124.12 877.355 121.48C872.369 118.84 866.942 117.52 861.075 117.52C854.329 117.52 848.242 118.987 842.815 121.92C837.389 124.853 833.135 129.107 830.055 134.68C826.975 140.107 825.435 146.633 825.435 154.26C825.435 161.887 826.975 168.487 830.055 174.06C833.135 179.487 837.389 183.667 842.815 186.6C848.242 189.533 854.329 191 861.075 191C866.942 191 872.369 189.68 877.355 187.04C882.489 184.4 886.815 180.293 890.335 174.72L911.455 187.04C906.909 195.84 900.235 202.66 891.435 207.5C882.782 212.193 872.735 214.54 861.295 214.54ZM988.729 214.54C975.675 214.54 964.235 211.973 954.409 206.84C944.729 201.56 937.175 194.373 931.749 185.28C926.469 176.187 923.829 165.847 923.829 154.26C923.829 142.527 926.395 132.187 931.529 123.24C936.809 114.147 943.995 107.033 953.089 101.9C962.329 96.7667 972.815 94.2 984.549 94.2C995.989 94.2 1006.18 96.6933 1015.13 101.68C1024.08 106.667 1031.12 113.707 1036.25 122.8C1041.38 131.893 1043.95 142.6 1043.95 154.92C1043.95 156.093 1043.88 157.413 1043.73 158.88C1043.73 160.347 1043.66 161.74 1043.51 163.06H945.609V144.8H1028.99L1018.21 150.52C1018.36 143.773 1016.96 137.833 1014.03 132.7C1011.1 127.567 1007.06 123.533 1001.93 120.6C996.942 117.667 991.149 116.2 984.549 116.2C977.802 116.2 971.862 117.667 966.729 120.6C961.742 123.533 957.782 127.64 954.849 132.92C952.062 138.053 950.669 144.14 950.669 151.18V155.58C950.669 162.62 952.282 168.853 955.509 174.28C958.735 179.707 963.282 183.887 969.149 186.82C975.015 189.753 981.762 191.22 989.389 191.22C995.989 191.22 1001.93 190.193 1007.21 188.14C1012.49 186.087 1017.18 182.86 1021.29 178.46L1036.03 195.4C1030.75 201.56 1024.08 206.327 1016.01 209.7C1008.09 212.927 998.995 214.54 988.729 214.54ZM1079.16 214.54C1074.18 214.54 1069.92 212.853 1066.4 209.48C1062.88 205.96 1061.12 201.56 1061.12 196.28C1061.12 190.707 1062.88 186.307 1066.4 183.08C1069.92 179.707 1074.18 178.02 1079.16 178.02C1084.15 178.02 1088.4 179.707 1091.92 183.08C1095.44 186.307 1097.2 190.707 1097.2 196.28C1097.2 201.56 1095.44 205.96 1091.92 209.48C1088.4 212.853 1084.15 214.54 1079.16 214.54ZM1198.6 213V189.24L1197.06 184.18V142.6C1197.06 134.533 1194.64 128.3 1189.8 123.9C1184.96 119.353 1177.63 117.08 1167.8 117.08C1161.2 117.08 1154.68 118.107 1148.22 120.16C1141.92 122.213 1136.56 125.073 1132.16 128.74L1121.38 108.72C1127.69 103.88 1135.17 100.287 1143.82 97.94C1152.62 95.4467 1161.72 94.2 1171.1 94.2C1188.12 94.2 1201.24 98.3067 1210.48 106.52C1219.87 114.587 1224.56 127.127 1224.56 144.14V213H1198.6ZM1161.64 214.54C1152.84 214.54 1145.14 213.073 1138.54 210.14C1131.94 207.06 1126.81 202.88 1123.14 197.6C1119.62 192.173 1117.86 186.087 1117.86 179.34C1117.86 172.74 1119.4 166.8 1122.48 161.52C1125.71 156.24 1130.92 152.06 1138.1 148.98C1145.29 145.9 1154.82 144.36 1166.7 144.36H1200.8V162.62H1168.68C1159.3 162.62 1152.99 164.16 1149.76 167.24C1146.54 170.173 1144.92 173.84 1144.92 178.24C1144.92 183.227 1146.9 187.187 1150.86 190.12C1154.82 193.053 1160.32 194.52 1167.36 194.52C1174.11 194.52 1180.12 192.98 1185.4 189.9C1190.83 186.82 1194.72 182.273 1197.06 176.26L1201.68 192.76C1199.04 199.653 1194.28 205.007 1187.38 208.82C1180.64 212.633 1172.06 214.54 1161.64 214.54ZM1259.86 213V95.52H1287.36V213H1259.86ZM1273.72 76.16C1268.58 76.16 1264.33 74.5467 1260.96 71.32C1257.73 68.0933 1256.12 64.2067 1256.12 59.66C1256.12 54.9667 1257.73 51.08 1260.96 48C1264.33 44.7733 1268.58 43.16 1273.72 43.16C1278.85 43.16 1283.03 44.7 1286.26 47.78C1289.63 50.7133 1291.32 54.4533 1291.32 59C1291.32 63.84 1289.7 67.9467 1286.48 71.32C1283.25 74.5467 1279 76.16 1273.72 76.16Z" fill="white"/>
<defs>
<linearGradient id="paint0_linear_4_11" x1="0" y1="47" x2="408" y2="47" gradientUnits="userSpaceOnUse">
<stop stop-color="#7392FF" stop-opacity="0"/>
<stop offset="0.0001" stop-color="#C200D6" stop-opacity="0.0573031"/>
<stop offset="1" stop-color="#0032E5"/>
<stop offset="1" stop-color="#0032E5"/>
<stop offset="1.0001" stop-color="#0038FF"/>
</linearGradient>
<linearGradient id="paint1_linear_4_11" x1="0" y1="137" x2="73" y2="137" gradientUnits="userSpaceOnUse">
<stop stop-color="#7392FF" stop-opacity="0"/>
<stop offset="0.0001" stop-color="#C200D6" stop-opacity="0.0573031"/>
<stop offset="1" stop-color="#0032E5"/>
<stop offset="1" stop-color="#0032E5"/>
<stop offset="1.0001" stop-color="#0038FF"/>
</linearGradient>
<linearGradient id="paint2_linear_4_11" x1="102" y1="137" x2="408" y2="137" gradientUnits="userSpaceOnUse">
<stop stop-color="#7392FF" stop-opacity="0"/>
<stop offset="0.0001" stop-color="#C200D6" stop-opacity="0.0573031"/>
<stop offset="1" stop-color="#0032E5"/>
<stop offset="1" stop-color="#0032E5"/>
<stop offset="1.0001" stop-color="#0038FF"/>
</linearGradient>
<linearGradient id="paint3_linear_4_11" x1="408" y1="301" x2="481" y2="301" gradientUnits="userSpaceOnUse">
<stop stop-color="#7392FF" stop-opacity="0"/>
<stop offset="0.0001" stop-color="#C200D6" stop-opacity="0.0573031"/>
<stop offset="1" stop-color="#0032E5"/>
<stop offset="1" stop-color="#0032E5"/>
<stop offset="1.0001" stop-color="#0038FF"/>
</linearGradient>
<linearGradient id="paint4_linear_4_11" x1="306" y1="301" x2="612" y2="301" gradientUnits="userSpaceOnUse">
<stop stop-color="#7392FF" stop-opacity="0"/>
<stop offset="0.0001" stop-color="#C200D6" stop-opacity="0.0573031"/>
<stop offset="1" stop-color="#0032E5"/>
<stop offset="1" stop-color="#0032E5"/>
<stop offset="1.0001" stop-color="#0038FF"/>
</linearGradient>
<linearGradient id="paint5_linear_4_11" x1="0" y1="47" x2="408" y2="47" gradientUnits="userSpaceOnUse">
<stop stop-color="#7392FF" stop-opacity="0"/>
<stop offset="0.0001" stop-color="#C200D6" stop-opacity="0.0573031"/>
<stop offset="1" stop-color="#0032E5"/>
<stop offset="1" stop-color="#0032E5"/>
<stop offset="1.0001" stop-color="#0038FF"/>
</linearGradient>
</defs>
</svg>
