<svg width="1964" height="379" viewBox="0 0 1964 379" fill="none" xmlns="http://www.w3.org/2000/svg">
<rect y="10" width="408" height="74" rx="37" fill="#D9D9D9"/>
<rect y="10" width="408" height="74" rx="37" fill="url(#paint0_linear_4_10)" fill-opacity="0.2"/>
<rect y="100" width="73" height="74" rx="36.5" fill="#D9D9D9"/>
<rect y="100" width="73" height="74" rx="36.5" fill="url(#paint1_linear_4_10)" fill-opacity="0.2"/>
<rect x="102" y="100" width="306" height="74" rx="37" fill="#D9D9D9"/>
<rect x="102" y="100" width="306" height="74" rx="37" fill="url(#paint2_linear_4_10)" fill-opacity="0.2"/>
<rect x="408" y="264" width="73" height="74" rx="36.5" transform="rotate(-180 408 264)" fill="#D9D9D9"/>
<rect x="408" y="264" width="73" height="74" rx="36.5" transform="rotate(-180 408 264)" fill="url(#paint3_linear_4_10)" fill-opacity="0.2"/>
<rect x="306" y="264" width="306" height="74" rx="37" transform="rotate(-180 306 264)" fill="#D9D9D9"/>
<rect x="306" y="264" width="306" height="74" rx="37" transform="rotate(-180 306 264)" fill="url(#paint4_linear_4_10)" fill-opacity="0.2"/>
<rect y="10" width="408" height="74" rx="37" fill="#D9D9D9"/>
<rect y="10" width="408" height="74" rx="37" fill="url(#paint5_linear_4_10)" fill-opacity="0.2"/>
<path d="M499.96 215.2C488.227 215.2 477.3 213.293 467.18 209.48C457.207 205.52 448.48 200.02 441 192.98C433.667 185.793 427.947 177.36 423.84 167.68C419.733 158 417.68 147.44 417.68 136C417.68 124.56 419.733 114 423.84 104.32C427.947 94.64 433.74 86.28 441.22 79.24C448.7 72.0533 457.427 66.5533 467.4 62.74C477.373 58.78 488.3 56.8 500.18 56.8C512.793 56.8 524.307 59 534.72 63.4C545.133 67.6533 553.933 74.0333 561.12 82.54L542.64 99.92C537.067 93.9067 530.833 89.4333 523.94 86.5C517.047 83.42 509.567 81.88 501.5 81.88C493.433 81.88 486.027 83.2 479.28 85.84C472.68 88.48 466.887 92.22 461.9 97.06C457.06 101.9 453.247 107.62 450.46 114.22C447.82 120.82 446.5 128.08 446.5 136C446.5 143.92 447.82 151.18 450.46 157.78C453.247 164.38 457.06 170.1 461.9 174.94C466.887 179.78 472.68 183.52 479.28 186.16C486.027 188.8 493.433 190.12 501.5 190.12C509.567 190.12 517.047 188.653 523.94 185.72C530.833 182.64 537.067 178.02 542.64 171.86L561.12 189.46C553.933 197.82 545.133 204.2 534.72 208.6C524.307 213 512.72 215.2 499.96 215.2ZM652.544 94.2C661.93 94.2 670.29 96.0333 677.624 99.7C685.104 103.367 690.97 109.013 695.224 116.64C699.477 124.12 701.604 133.8 701.604 145.68V213H674.104V149.2C674.104 138.787 671.61 131.013 666.624 125.88C661.784 120.747 654.964 118.18 646.164 118.18C639.71 118.18 633.99 119.5 629.004 122.14C624.017 124.78 620.13 128.74 617.344 134.02C614.704 139.153 613.384 145.68 613.384 153.6V213H585.884V49.76H613.384V127.2L607.444 117.52C611.55 110.04 617.49 104.32 625.264 100.36C633.184 96.2533 642.277 94.2 652.544 94.2ZM789.504 214.54C777.477 214.54 766.771 211.973 757.384 206.84C747.997 201.56 740.591 194.373 735.164 185.28C729.737 176.187 727.024 165.847 727.024 154.26C727.024 142.527 729.737 132.187 735.164 123.24C740.591 114.147 747.997 107.033 757.384 101.9C766.771 96.7667 777.477 94.2 789.504 94.2C801.677 94.2 812.457 96.7667 821.844 101.9C831.377 107.033 838.784 114.073 844.064 123.02C849.491 131.967 852.204 142.38 852.204 154.26C852.204 165.847 849.491 176.187 844.064 185.28C838.784 194.373 831.377 201.56 821.844 206.84C812.457 211.973 801.677 214.54 789.504 214.54ZM789.504 191C796.251 191 802.264 189.533 807.544 186.6C812.824 183.667 816.931 179.413 819.864 173.84C822.944 168.267 824.484 161.74 824.484 154.26C824.484 146.633 822.944 140.107 819.864 134.68C816.931 129.107 812.824 124.853 807.544 121.92C802.264 118.987 796.324 117.52 789.724 117.52C782.977 117.52 776.964 118.987 771.684 121.92C766.551 124.853 762.444 129.107 759.364 134.68C756.284 140.107 754.744 146.633 754.744 154.26C754.744 161.74 756.284 168.267 759.364 173.84C762.444 179.413 766.551 183.667 771.684 186.6C776.964 189.533 782.904 191 789.504 191ZM878.501 213V95.52H904.681V127.86L901.601 118.4C905.121 110.48 910.621 104.467 918.101 100.36C925.728 96.2533 935.188 94.2 946.481 94.2V120.38C945.308 120.087 944.208 119.94 943.181 119.94C942.154 119.793 941.128 119.72 940.101 119.72C929.688 119.72 921.401 122.8 915.241 128.96C909.081 134.973 906.001 143.993 906.001 156.02V213H878.501ZM1018.46 214.54C1007.16 214.54 996.969 212.047 987.875 207.06C978.929 201.927 971.889 194.887 966.755 185.94C961.622 176.993 959.055 166.433 959.055 154.26C959.055 142.087 961.622 131.527 966.755 122.58C971.889 113.633 978.929 106.667 987.875 101.68C996.969 96.6933 1007.16 94.2 1018.46 94.2C1028.28 94.2 1037.08 96.4 1044.86 100.8C1052.63 105.053 1058.79 111.58 1063.34 120.38C1067.88 129.18 1070.16 140.473 1070.16 154.26C1070.16 167.9 1067.96 179.193 1063.56 188.14C1059.16 196.94 1053.07 203.54 1045.3 207.94C1037.52 212.34 1028.58 214.54 1018.46 214.54ZM1021.76 191C1028.36 191 1034.22 189.533 1039.36 186.6C1044.64 183.667 1048.82 179.413 1051.9 173.84C1055.12 168.267 1056.74 161.74 1056.74 154.26C1056.74 146.633 1055.12 140.107 1051.9 134.68C1048.82 129.107 1044.64 124.853 1039.36 121.92C1034.22 118.987 1028.36 117.52 1021.76 117.52C1015.16 117.52 1009.22 118.987 1003.94 121.92C998.802 124.853 994.622 129.107 991.395 134.68C988.315 140.107 986.775 146.633 986.775 154.26C986.775 161.74 988.315 168.267 991.395 173.84C994.622 179.413 998.802 183.667 1003.94 186.6C1009.22 189.533 1015.16 191 1021.76 191ZM1057.4 213V185.28L1058.5 154.04L1056.3 122.8V49.76H1083.58V213H1057.4ZM1119.77 213V95.52H1147.27V213H1119.77ZM1133.63 76.16C1128.5 76.16 1124.24 74.5467 1120.87 71.32C1117.64 68.0933 1116.03 64.2067 1116.03 59.66C1116.03 54.9667 1117.64 51.08 1120.87 48C1124.24 44.7733 1128.5 43.16 1133.63 43.16C1138.76 43.16 1142.94 44.7 1146.17 47.78C1149.54 50.7133 1151.23 54.4533 1151.23 59C1151.23 63.84 1149.62 67.9467 1146.39 71.32C1143.16 74.5467 1138.91 76.16 1133.63 76.16ZM1187.1 213V88.92C1187.1 76.6 1190.7 66.7733 1197.88 59.44C1205.22 51.96 1215.63 48.22 1229.12 48.22C1233.96 48.22 1238.51 48.7333 1242.76 49.76C1247.16 50.7867 1250.83 52.4 1253.76 54.6L1246.28 75.28C1244.23 73.6667 1241.88 72.4933 1239.24 71.76C1236.6 70.88 1233.89 70.44 1231.1 70.44C1225.38 70.44 1221.06 72.0533 1218.12 75.28C1215.19 78.36 1213.72 83.0533 1213.72 89.36V102.56L1214.6 114.88V213H1187.1ZM1167.74 118.4V96.4H1246.06V118.4H1167.74ZM1276.4 257.22C1270.68 257.22 1264.96 256.267 1259.24 254.36C1253.52 252.453 1248.76 249.813 1244.94 246.44L1255.94 226.2C1258.73 228.693 1261.88 230.673 1265.4 232.14C1268.92 233.607 1272.52 234.34 1276.18 234.34C1281.17 234.34 1285.2 233.093 1288.28 230.6C1291.36 228.107 1294.22 223.927 1296.86 218.06L1303.68 202.66L1305.88 199.36L1350.32 95.52H1376.72L1321.72 222.46C1318.06 231.26 1313.95 238.227 1309.4 243.36C1305 248.493 1300.02 252.087 1294.44 254.14C1289.02 256.193 1283 257.22 1276.4 257.22ZM1300.6 217.18L1247.58 95.52H1276.18L1319.3 196.94L1300.6 217.18ZM1395.41 214.54C1390.42 214.54 1386.17 212.853 1382.65 209.48C1379.13 205.96 1377.37 201.56 1377.37 196.28C1377.37 190.707 1379.13 186.307 1382.65 183.08C1386.17 179.707 1390.42 178.02 1395.41 178.02C1400.39 178.02 1404.65 179.707 1408.17 183.08C1411.69 186.307 1413.45 190.707 1413.45 196.28C1413.45 201.56 1411.69 205.96 1408.17 209.48C1404.65 212.853 1400.39 214.54 1395.41 214.54ZM1514.85 213V189.24L1513.31 184.18V142.6C1513.31 134.533 1510.89 128.3 1506.05 123.9C1501.21 119.353 1493.87 117.08 1484.05 117.08C1477.45 117.08 1470.92 118.107 1464.47 120.16C1458.16 122.213 1452.81 125.073 1448.41 128.74L1437.63 108.72C1443.93 103.88 1451.41 100.287 1460.07 97.94C1468.87 95.4467 1477.96 94.2 1487.35 94.2C1504.36 94.2 1517.49 98.3067 1526.73 106.52C1536.11 114.587 1540.81 127.127 1540.81 144.14V213H1514.85ZM1477.89 214.54C1469.09 214.54 1461.39 213.073 1454.79 210.14C1448.19 207.06 1443.05 202.88 1439.39 197.6C1435.87 192.173 1434.11 186.087 1434.11 179.34C1434.11 172.74 1435.65 166.8 1438.73 161.52C1441.95 156.24 1447.16 152.06 1454.35 148.98C1461.53 145.9 1471.07 144.36 1482.95 144.36H1517.05V162.62H1484.93C1475.54 162.62 1469.23 164.16 1466.01 167.24C1462.78 170.173 1461.17 173.84 1461.17 178.24C1461.17 183.227 1463.15 187.187 1467.11 190.12C1471.07 193.053 1476.57 194.52 1483.61 194.52C1490.35 194.52 1496.37 192.98 1501.65 189.9C1507.07 186.82 1510.96 182.273 1513.31 176.26L1517.93 192.76C1515.29 199.653 1510.52 205.007 1503.63 208.82C1496.88 212.633 1488.3 214.54 1477.89 214.54ZM1576.1 213V95.52H1603.6V213H1576.1ZM1589.96 76.16C1584.83 76.16 1580.57 74.5467 1577.2 71.32C1573.97 68.0933 1572.36 64.2067 1572.36 59.66C1572.36 54.9667 1573.97 51.08 1577.2 48C1580.57 44.7733 1584.83 43.16 1589.96 43.16C1595.09 43.16 1599.27 44.7 1602.5 47.78C1605.87 50.7133 1607.56 54.4533 1607.56 59C1607.56 63.84 1605.95 67.9467 1602.72 71.32C1599.49 74.5467 1595.24 76.16 1589.96 76.16Z" fill="white"/>
<defs>
<linearGradient id="paint0_linear_4_10" x1="0" y1="47" x2="408" y2="47" gradientUnits="userSpaceOnUse">
<stop stop-color="#7392FF" stop-opacity="0"/>
<stop offset="0.0001" stop-color="#C200D6" stop-opacity="0.0573031"/>
<stop offset="1" stop-color="#0032E5"/>
<stop offset="1" stop-color="#0032E5"/>
<stop offset="1.0001" stop-color="#0038FF"/>
</linearGradient>
<linearGradient id="paint1_linear_4_10" x1="0" y1="137" x2="73" y2="137" gradientUnits="userSpaceOnUse">
<stop stop-color="#7392FF" stop-opacity="0"/>
<stop offset="0.0001" stop-color="#C200D6" stop-opacity="0.0573031"/>
<stop offset="1" stop-color="#0032E5"/>
<stop offset="1" stop-color="#0032E5"/>
<stop offset="1.0001" stop-color="#0038FF"/>
</linearGradient>
<linearGradient id="paint2_linear_4_10" x1="102" y1="137" x2="408" y2="137" gradientUnits="userSpaceOnUse">
<stop stop-color="#7392FF" stop-opacity="0"/>
<stop offset="0.0001" stop-color="#C200D6" stop-opacity="0.0573031"/>
<stop offset="1" stop-color="#0032E5"/>
<stop offset="1" stop-color="#0032E5"/>
<stop offset="1.0001" stop-color="#0038FF"/>
</linearGradient>
<linearGradient id="paint3_linear_4_10" x1="408" y1="301" x2="481" y2="301" gradientUnits="userSpaceOnUse">
<stop stop-color="#7392FF" stop-opacity="0"/>
<stop offset="0.0001" stop-color="#C200D6" stop-opacity="0.0573031"/>
<stop offset="1" stop-color="#0032E5"/>
<stop offset="1" stop-color="#0032E5"/>
<stop offset="1.0001" stop-color="#0038FF"/>
</linearGradient>
<linearGradient id="paint4_linear_4_10" x1="306" y1="301" x2="612" y2="301" gradientUnits="userSpaceOnUse">
<stop stop-color="#7392FF" stop-opacity="0"/>
<stop offset="0.0001" stop-color="#C200D6" stop-opacity="0.0573031"/>
<stop offset="1" stop-color="#0032E5"/>
<stop offset="1" stop-color="#0032E5"/>
<stop offset="1.0001" stop-color="#0038FF"/>
</linearGradient>
<linearGradient id="paint5_linear_4_10" x1="0" y1="47" x2="408" y2="47" gradientUnits="userSpaceOnUse">
<stop stop-color="#7392FF" stop-opacity="0"/>
<stop offset="0.0001" stop-color="#C200D6" stop-opacity="0.0573031"/>
<stop offset="1" stop-color="#0032E5"/>
<stop offset="1" stop-color="#0032E5"/>
<stop offset="1.0001" stop-color="#0038FF"/>
</linearGradient>
</defs>
</svg>
