<svg width="2016" height="379" viewBox="0 0 2016 379" fill="none" xmlns="http://www.w3.org/2000/svg">
<rect y="10" width="408" height="74" rx="37" fill="#D9D9D9"/>
<rect y="10" width="408" height="74" rx="37" fill="url(#paint0_linear_4_11)" fill-opacity="0.2"/>
<rect y="100" width="73" height="74" rx="36.5" fill="#D9D9D9"/>
<rect y="100" width="73" height="74" rx="36.5" fill="url(#paint1_linear_4_11)" fill-opacity="0.2"/>
<rect x="102" y="100" width="306" height="74" rx="37" fill="#D9D9D9"/>
<rect x="102" y="100" width="306" height="74" rx="37" fill="url(#paint2_linear_4_11)" fill-opacity="0.2"/>
<rect x="408" y="264" width="73" height="74" rx="36.5" transform="rotate(-180 408 264)" fill="#D9D9D9"/>
<rect x="408" y="264" width="73" height="74" rx="36.5" transform="rotate(-180 408 264)" fill="url(#paint3_linear_4_11)" fill-opacity="0.2"/>
<rect x="306" y="264" width="306" height="74" rx="37" transform="rotate(-180 306 264)" fill="#D9D9D9"/>
<rect x="306" y="264" width="306" height="74" rx="37" transform="rotate(-180 306 264)" fill="url(#paint4_linear_4_11)" fill-opacity="0.2"/>
<rect y="10" width="408" height="74" rx="37" fill="#D9D9D9"/>
<rect y="10" width="408" height="74" rx="37" fill="url(#paint5_linear_4_11)" fill-opacity="0.2"/>
<path d="M551.96 215.2C540.227 215.2 529.3 213.293 519.18 209.48C509.207 205.52 500.48 200.02 493 192.98C485.667 185.793 479.947 177.36 475.84 167.68C471.733 158 469.68 147.44 469.68 136C469.68 124.56 471.733 114 475.84 104.32C479.947 94.64 485.74 86.28 493.22 79.24C500.7 72.0533 509.427 66.5533 519.4 62.74C529.373 58.78 540.3 56.8 552.18 56.8C564.793 56.8 576.307 59 586.72 63.4C597.133 67.6533 605.933 74.0333 613.12 82.54L594.64 99.92C589.067 93.9067 582.833 89.4333 575.94 86.5C569.047 83.42 561.567 81.88 553.5 81.88C545.433 81.88 538.027 83.2 531.28 85.84C524.68 88.48 518.887 92.22 513.9 97.06C509.06 101.9 505.247 107.62 502.46 114.22C499.82 120.82 498.5 128.08 498.5 136C498.5 143.92 499.82 151.18 502.46 157.78C505.247 164.38 509.06 170.1 513.9 174.94C518.887 179.78 524.68 183.52 531.28 186.16C538.027 188.8 545.433 190.12 553.5 190.12C561.567 190.12 569.047 188.653 575.94 185.72C582.833 182.64 589.067 178.02 594.64 171.86L613.12 189.46C605.933 197.82 597.133 204.2 586.72 208.6C576.307 213 564.72 215.2 551.96 215.2ZM704.544 94.2C713.93 94.2 722.29 96.0333 729.624 99.7C737.104 103.367 742.97 109.013 747.224 116.64C751.477 124.12 753.604 133.8 753.604 145.68V213H726.104V149.2C726.104 138.787 723.61 131.013 718.624 125.88C713.784 120.747 706.964 118.18 698.164 118.18C691.71 118.18 685.99 119.5 681.004 122.14C676.017 124.78 672.13 128.74 669.344 134.02C666.704 139.153 665.384 145.68 665.384 153.6V213H637.884V49.76H665.384V127.2L659.444 117.52C663.55 110.04 669.49 104.32 677.264 100.36C685.184 96.2533 694.277 94.2 704.544 94.2ZM841.504 214.54C829.477 214.54 818.771 211.973 809.384 206.84C799.997 201.56 792.591 194.373 787.164 185.28C781.737 176.187 779.024 165.847 779.024 154.26C779.024 142.527 781.737 132.187 787.164 123.24C792.591 114.147 799.997 107.033 809.384 101.9C818.771 96.7667 829.477 94.2 841.504 94.2C853.677 94.2 864.457 96.7667 873.844 101.9C883.377 107.033 890.784 114.073 896.064 123.02C901.491 131.967 904.204 142.38 904.204 154.26C904.204 165.847 901.491 176.187 896.064 185.28C890.784 194.373 883.377 201.56 873.844 206.84C864.457 211.973 853.677 214.54 841.504 214.54ZM841.504 191C848.251 191 854.264 189.533 859.544 186.6C864.824 183.667 868.931 179.413 871.864 173.84C874.944 168.267 876.484 161.74 876.484 154.26C876.484 146.633 874.944 140.107 871.864 134.68C868.931 129.107 864.824 124.853 859.544 121.92C854.264 118.987 848.324 117.52 841.724 117.52C834.977 117.52 828.964 118.987 823.684 121.92C818.551 124.853 814.444 129.107 811.364 134.68C808.284 140.107 806.744 146.633 806.744 154.26C806.744 161.74 808.284 168.267 811.364 173.84C814.444 179.413 818.551 183.667 823.684 186.6C828.964 189.533 834.904 191 841.504 191ZM930.501 213V95.52H956.681V127.86L953.601 118.4C957.121 110.48 962.621 104.467 970.101 100.36C977.728 96.2533 987.188 94.2 998.481 94.2V120.38C997.308 120.087 996.208 119.94 995.181 119.94C994.154 119.793 993.128 119.72 992.101 119.72C981.688 119.72 973.401 122.8 967.241 128.96C961.081 134.973 958.001 143.993 958.001 156.02V213H930.501ZM1070.46 214.54C1059.16 214.54 1048.97 212.047 1039.88 207.06C1030.93 201.927 1023.89 194.887 1018.76 185.94C1013.62 176.993 1011.06 166.433 1011.06 154.26C1011.06 142.087 1013.62 131.527 1018.76 122.58C1023.89 113.633 1030.93 106.667 1039.88 101.68C1048.97 96.6933 1059.16 94.2 1070.46 94.2C1080.28 94.2 1089.08 96.4 1096.86 100.8C1104.63 105.053 1110.79 111.58 1115.34 120.38C1119.88 129.18 1122.16 140.473 1122.16 154.26C1122.16 167.9 1119.96 179.193 1115.56 188.14C1111.16 196.94 1105.07 203.54 1097.3 207.94C1089.52 212.34 1080.58 214.54 1070.46 214.54ZM1073.76 191C1080.36 191 1086.22 189.533 1091.36 186.6C1096.64 183.667 1100.82 179.413 1103.9 173.84C1107.12 168.267 1108.74 161.74 1108.74 154.26C1108.74 146.633 1107.12 140.107 1103.9 134.68C1100.82 129.107 1096.64 124.853 1091.36 121.92C1086.22 118.987 1080.36 117.52 1073.76 117.52C1067.16 117.52 1061.22 118.987 1055.94 121.92C1050.8 124.853 1046.62 129.107 1043.4 134.68C1040.32 140.107 1038.78 146.633 1038.78 154.26C1038.78 161.74 1040.32 168.267 1043.4 173.84C1046.62 179.413 1050.8 183.667 1055.94 186.6C1061.22 189.533 1067.16 191 1073.76 191ZM1109.4 213V185.28L1110.5 154.04L1108.3 122.8V49.76H1135.58V213H1109.4ZM1171.77 213V95.52H1199.27V213H1171.77ZM1185.63 76.16C1180.5 76.16 1176.24 74.5467 1172.87 71.32C1169.64 68.0933 1168.03 64.2067 1168.03 59.66C1168.03 54.9667 1169.64 51.08 1172.87 48C1176.24 44.7733 1180.5 43.16 1185.63 43.16C1190.76 43.16 1194.94 44.7 1198.17 47.78C1201.54 50.7133 1203.23 54.4533 1203.23 59C1203.23 63.84 1201.62 67.9467 1198.39 71.32C1195.16 74.5467 1190.91 76.16 1185.63 76.16ZM1239.1 213V88.92C1239.1 76.6 1242.7 66.7733 1249.88 59.44C1257.22 51.96 1267.63 48.22 1281.12 48.22C1285.96 48.22 1290.51 48.7333 1294.76 49.76C1299.16 50.7867 1302.83 52.4 1305.76 54.6L1298.28 75.28C1296.23 73.6667 1293.88 72.4933 1291.24 71.76C1288.6 70.88 1285.89 70.44 1283.1 70.44C1277.38 70.44 1273.06 72.0533 1270.12 75.28C1267.19 78.36 1265.72 83.0533 1265.72 89.36V102.56L1266.6 114.88V213H1239.1ZM1219.74 118.4V96.4H1298.06V118.4H1219.74ZM1328.4 257.22C1322.68 257.22 1316.96 256.267 1311.24 254.36C1305.52 252.453 1300.76 249.813 1296.94 246.44L1307.94 226.2C1310.73 228.693 1313.88 230.673 1317.4 232.14C1320.92 233.607 1324.52 234.34 1328.18 234.34C1333.17 234.34 1337.2 233.093 1340.28 230.6C1343.36 228.107 1346.22 223.927 1348.86 218.06L1355.68 202.66L1357.88 199.36L1402.32 95.52H1428.72L1373.72 222.46C1370.06 231.26 1365.95 238.227 1361.4 243.36C1357 248.493 1352.02 252.087 1346.44 254.14C1341.02 256.193 1335 257.22 1328.4 257.22ZM1352.6 217.18L1299.58 95.52H1328.18L1371.3 196.94L1352.6 217.18ZM1447.41 214.54C1442.42 214.54 1438.17 212.853 1434.65 209.48C1431.13 205.96 1429.37 201.56 1429.37 196.28C1429.37 190.707 1431.13 186.307 1434.65 183.08C1438.17 179.707 1442.42 178.02 1447.41 178.02C1452.39 178.02 1456.65 179.707 1460.17 183.08C1463.69 186.307 1465.45 190.707 1465.45 196.28C1465.45 201.56 1463.69 205.96 1460.17 209.48C1456.65 212.853 1452.39 214.54 1447.41 214.54ZM1566.85 213V189.24L1565.31 184.18V142.6C1565.31 134.533 1562.89 128.3 1558.05 123.9C1553.21 119.353 1545.87 117.08 1536.05 117.08C1529.45 117.08 1522.92 118.107 1516.47 120.16C1510.16 122.213 1504.81 125.073 1500.41 128.74L1489.63 108.72C1495.93 103.88 1503.41 100.287 1512.07 97.94C1520.87 95.4467 1529.96 94.2 1539.35 94.2C1556.36 94.2 1569.49 98.3067 1578.73 106.52C1588.11 114.587 1592.81 127.127 1592.81 144.14V213H1566.85ZM1529.89 214.54C1521.09 214.54 1513.39 213.073 1506.79 210.14C1500.19 207.06 1495.05 202.88 1491.39 197.6C1487.87 192.173 1486.11 186.087 1486.11 179.34C1486.11 172.74 1487.65 166.8 1490.73 161.52C1493.95 156.24 1499.16 152.06 1506.35 148.98C1513.53 145.9 1523.07 144.36 1534.95 144.36H1569.05V162.62H1536.93C1527.54 162.62 1521.23 164.16 1518.01 167.24C1514.78 170.173 1513.17 173.84 1513.17 178.24C1513.17 183.227 1515.15 187.187 1519.11 190.12C1523.07 193.053 1528.57 194.52 1535.61 194.52C1542.35 194.52 1548.37 192.98 1553.65 189.9C1559.07 186.82 1562.96 182.273 1565.31 176.26L1569.93 192.76C1567.29 199.653 1562.52 205.007 1555.63 208.82C1548.88 212.633 1540.3 214.54 1529.89 214.54ZM1628.1 213V95.52H1655.6V213H1628.1ZM1641.96 76.16C1636.83 76.16 1632.57 74.5467 1629.2 71.32C1625.97 68.0933 1624.36 64.2067 1624.36 59.66C1624.36 54.9667 1625.97 51.08 1629.2 48C1632.57 44.7733 1636.83 43.16 1641.96 43.16C1647.09 43.16 1651.27 44.7 1654.5 47.78C1657.87 50.7133 1659.56 54.4533 1659.56 59C1659.56 63.84 1657.95 67.9467 1654.72 71.32C1651.49 74.5467 1647.24 76.16 1641.96 76.16Z" fill="white"/>
<defs>
<linearGradient id="paint0_linear_4_11" x1="0" y1="47" x2="408" y2="47" gradientUnits="userSpaceOnUse">
<stop stop-color="#7392FF" stop-opacity="0"/>
<stop offset="0.0001" stop-color="#C200D6" stop-opacity="0.0573031"/>
<stop offset="1" stop-color="#0032E5"/>
<stop offset="1" stop-color="#0032E5"/>
<stop offset="1.0001" stop-color="#0038FF"/>
</linearGradient>
<linearGradient id="paint1_linear_4_11" x1="0" y1="137" x2="73" y2="137" gradientUnits="userSpaceOnUse">
<stop stop-color="#7392FF" stop-opacity="0"/>
<stop offset="0.0001" stop-color="#C200D6" stop-opacity="0.0573031"/>
<stop offset="1" stop-color="#0032E5"/>
<stop offset="1" stop-color="#0032E5"/>
<stop offset="1.0001" stop-color="#0038FF"/>
</linearGradient>
<linearGradient id="paint2_linear_4_11" x1="102" y1="137" x2="408" y2="137" gradientUnits="userSpaceOnUse">
<stop stop-color="#7392FF" stop-opacity="0"/>
<stop offset="0.0001" stop-color="#C200D6" stop-opacity="0.0573031"/>
<stop offset="1" stop-color="#0032E5"/>
<stop offset="1" stop-color="#0032E5"/>
<stop offset="1.0001" stop-color="#0038FF"/>
</linearGradient>
<linearGradient id="paint3_linear_4_11" x1="408" y1="301" x2="481" y2="301" gradientUnits="userSpaceOnUse">
<stop stop-color="#7392FF" stop-opacity="0"/>
<stop offset="0.0001" stop-color="#C200D6" stop-opacity="0.0573031"/>
<stop offset="1" stop-color="#0032E5"/>
<stop offset="1" stop-color="#0032E5"/>
<stop offset="1.0001" stop-color="#0038FF"/>
</linearGradient>
<linearGradient id="paint4_linear_4_11" x1="306" y1="301" x2="612" y2="301" gradientUnits="userSpaceOnUse">
<stop stop-color="#7392FF" stop-opacity="0"/>
<stop offset="0.0001" stop-color="#C200D6" stop-opacity="0.0573031"/>
<stop offset="1" stop-color="#0032E5"/>
<stop offset="1" stop-color="#0032E5"/>
<stop offset="1.0001" stop-color="#0038FF"/>
</linearGradient>
<linearGradient id="paint5_linear_4_11" x1="0" y1="47" x2="408" y2="47" gradientUnits="userSpaceOnUse">
<stop stop-color="#7392FF" stop-opacity="0"/>
<stop offset="0.0001" stop-color="#C200D6" stop-opacity="0.0573031"/>
<stop offset="1" stop-color="#0032E5"/>
<stop offset="1" stop-color="#0032E5"/>
<stop offset="1.0001" stop-color="#0038FF"/>
</linearGradient>
</defs>
</svg>
