<svg width="1009" height="321" viewBox="0 0 1009 321" fill="none" xmlns="http://www.w3.org/2000/svg">
<rect width="408" height="74" rx="37" fill="#D9D9D9"/>
<rect width="408" height="74" rx="37" fill="url(#paint0_linear_1_10)" fill-opacity="0.2"/>
<rect y="90" width="73" height="74" rx="36.5" fill="#D9D9D9"/>
<rect y="90" width="73" height="74" rx="36.5" fill="url(#paint1_linear_1_10)" fill-opacity="0.2"/>
<rect x="102" y="90" width="306" height="74" rx="37" fill="#D9D9D9"/>
<rect x="102" y="90" width="306" height="74" rx="37" fill="url(#paint2_linear_1_10)" fill-opacity="0.2"/>
<rect x="408" y="254" width="73" height="74" rx="36.5" transform="rotate(-180 408 254)" fill="#D9D9D9"/>
<rect x="408" y="254" width="73" height="74" rx="36.5" transform="rotate(-180 408 254)" fill="url(#paint3_linear_1_10)" fill-opacity="0.2"/>
<rect x="306" y="254" width="306" height="74" rx="37" transform="rotate(-180 306 254)" fill="#D9D9D9"/>
<rect x="306" y="254" width="306" height="74" rx="37" transform="rotate(-180 306 254)" fill="url(#paint4_linear_1_10)" fill-opacity="0.2"/>
<rect width="408" height="74" rx="37" fill="#D9D9D9"/>
<rect width="408" height="74" rx="37" fill="url(#paint5_linear_1_10)" fill-opacity="0.2"/>
<path d="M476.1 171.6C469.167 171.6 463.267 170.4 458.4 168C453.533 165.533 449.8 162.133 447.2 157.8C444.667 153.4 443.4 148.3 443.4 142.5C443.4 136.767 444.367 131.367 446.3 126.3C448.3 121.233 451.133 116.767 454.8 112.9C458.533 108.967 463 105.9 468.2 103.7C473.467 101.5 479.4 100.4 486 100.4C491.6 100.4 496.567 101.267 500.9 103C505.233 104.733 508.567 107.267 510.9 110.6L505.7 115.2C503.5 112.467 500.733 110.433 497.4 109.1C494.067 107.7 490.067 107 485.4 107C480.133 107 475.333 107.933 471 109.8C466.733 111.6 463.1 114.133 460.1 117.4C457.1 120.667 454.767 124.433 453.1 128.7C451.5 132.9 450.7 137.4 450.7 142.2C450.7 146.667 451.667 150.633 453.6 154.1C455.6 157.5 458.533 160.167 462.4 162.1C466.267 164.033 471 165 476.6 165C481.2 165 485.367 164.3 489.1 162.9C492.833 161.5 496.1 159.433 498.9 156.7L503.2 161.6C500.133 164.867 496.233 167.367 491.5 169.1C486.767 170.767 481.633 171.6 476.1 171.6ZM549.675 118C554.408 118 558.275 118.933 561.275 120.8C564.342 122.6 566.442 125.233 567.575 128.7C568.775 132.167 568.875 136.3 567.875 141.1L561.875 171H554.775L560.775 141C561.842 135.8 561.275 131.733 559.075 128.8C556.942 125.867 553.142 124.4 547.675 124.4C542.075 124.4 537.408 125.933 533.675 129C530.008 132.067 527.542 136.667 526.275 142.8L520.675 171H513.575L528.375 96.8H535.475L528.075 133.6L526.275 131C528.808 126.467 532.075 123.167 536.075 121.1C540.142 119.033 544.675 118 549.675 118ZM604.553 171.5C599.686 171.5 595.453 170.6 591.853 168.8C588.32 166.933 585.553 164.333 583.553 161C581.62 157.667 580.653 153.733 580.653 149.2C580.653 143.2 581.953 137.867 584.553 133.2C587.153 128.467 590.753 124.767 595.353 122.1C599.953 119.367 605.186 118 611.053 118C615.92 118 620.12 118.9 623.653 120.7C627.253 122.5 630.02 125.067 631.953 128.4C633.953 131.733 634.953 135.667 634.953 140.2C634.953 146.2 633.653 151.567 631.053 156.3C628.453 160.967 624.853 164.667 620.253 167.4C615.72 170.133 610.486 171.5 604.553 171.5ZM605.053 165.2C609.453 165.2 613.353 164.167 616.753 162.1C620.22 159.967 622.92 157.033 624.853 153.3C626.853 149.567 627.853 145.333 627.853 140.6C627.853 135.4 626.32 131.367 623.253 128.5C620.253 125.633 616.02 124.2 610.553 124.2C606.22 124.2 602.32 125.267 598.853 127.4C595.386 129.533 592.653 132.467 590.653 136.2C588.72 139.867 587.753 144.1 587.753 148.9C587.753 154.033 589.253 158.033 592.253 160.9C595.32 163.767 599.586 165.2 605.053 165.2ZM643.848 171L654.248 118.5H661.048L658.048 134L657.248 131.3C659.582 126.7 662.648 123.333 666.448 121.2C670.315 119.067 675.115 118 680.848 118L679.548 124.9C679.215 124.9 678.882 124.9 678.548 124.9C678.282 124.833 677.948 124.8 677.548 124.8C671.948 124.8 667.315 126.433 663.648 129.7C660.048 132.9 657.582 137.767 656.248 144.3L650.948 171H643.848ZM705.116 171.5C700.649 171.5 696.682 170.6 693.216 168.8C689.749 167 687.049 164.433 685.116 161.1C683.182 157.767 682.216 153.8 682.216 149.2C682.216 144.733 682.949 140.6 684.416 136.8C685.882 133 687.949 129.7 690.616 126.9C693.282 124.033 696.416 121.833 700.016 120.3C703.682 118.767 707.649 118 711.916 118C716.516 118 720.416 118.833 723.616 120.5C726.816 122.1 729.282 124.467 731.016 127.6C732.749 130.667 733.616 134.4 733.616 138.8C733.616 143.533 732.949 147.9 731.616 151.9C730.349 155.9 728.449 159.367 725.916 162.3C723.382 165.233 720.349 167.5 716.816 169.1C713.349 170.7 709.449 171.5 705.116 171.5ZM706.616 165.2C711.016 165.2 714.916 164.167 718.316 162.1C721.782 159.967 724.482 157.033 726.416 153.3C728.416 149.567 729.416 145.333 729.416 140.6C729.416 135.4 727.882 131.367 724.816 128.5C721.816 125.633 717.582 124.2 712.116 124.2C707.782 124.2 703.882 125.267 700.416 127.4C696.949 129.533 694.216 132.467 692.216 136.2C690.282 139.867 689.316 144.1 689.316 148.9C689.316 154.033 690.816 158.033 693.816 160.9C696.882 163.767 701.149 165.2 706.616 165.2ZM723.916 171L726.916 155.9L729.916 145.3L730.916 134.3L738.416 96.8H745.516L730.716 171H723.916ZM750.489 171L760.889 118.5H767.989L757.589 171H750.489ZM767.489 106.9C766.089 106.9 764.922 106.433 763.989 105.5C763.122 104.567 762.689 103.467 762.689 102.2C762.689 100.733 763.189 99.4667 764.189 98.4C765.256 97.3333 766.589 96.8 768.189 96.8C769.589 96.8 770.756 97.2333 771.689 98.1C772.622 98.9667 773.089 100.067 773.089 101.4C773.089 103 772.556 104.333 771.489 105.4C770.422 106.4 769.089 106.9 767.489 106.9ZM778.545 171L790.345 111.8C791.345 106.867 793.345 103.067 796.345 100.4C799.411 97.6667 803.411 96.3 808.345 96.3C810.478 96.3 812.478 96.6 814.345 97.2C816.211 97.8 817.745 98.6333 818.945 99.7L815.745 104.9C813.878 103.167 811.411 102.3 808.345 102.3C805.278 102.3 802.811 103.133 800.945 104.8C799.145 106.4 797.878 109 797.145 112.6L795.545 120.3L795.145 123.4L785.645 171H778.545ZM778.445 124.4L779.545 118.5H812.045L810.845 124.4H778.445ZM809.508 190.9C807.041 190.9 804.674 190.467 802.408 189.6C800.141 188.8 798.341 187.667 797.008 186.2L800.808 181C801.941 182.2 803.274 183.133 804.808 183.8C806.341 184.467 808.074 184.8 810.008 184.8C812.274 184.8 814.341 184.167 816.208 182.9C818.141 181.7 820.141 179.5 822.208 176.3L827.508 168.2L828.408 167.2L859.608 118.5H866.908L828.508 177.8C826.308 181.133 824.241 183.733 822.308 185.6C820.374 187.533 818.374 188.9 816.308 189.7C814.308 190.5 812.041 190.9 809.508 190.9ZM826.308 172.5L812.808 118.5H820.008L831.808 166.7L826.308 172.5ZM864.489 171.5C863.022 171.5 861.789 171 860.789 170C859.789 169 859.289 167.767 859.289 166.3C859.289 164.633 859.856 163.267 860.989 162.2C862.122 161.133 863.422 160.6 864.889 160.6C866.356 160.6 867.556 161.1 868.489 162.1C869.489 163.033 869.989 164.267 869.989 165.8C869.989 166.933 869.722 167.933 869.189 168.8C868.722 169.6 868.056 170.267 867.189 170.8C866.322 171.267 865.422 171.5 864.489 171.5ZM905.116 171.5C900.649 171.5 896.682 170.6 893.216 168.8C889.749 167 887.049 164.433 885.116 161.1C883.182 157.767 882.216 153.8 882.216 149.2C882.216 144.733 882.949 140.6 884.416 136.8C885.882 133 887.949 129.7 890.616 126.9C893.282 124.033 896.416 121.833 900.016 120.3C903.682 118.767 907.649 118 911.916 118C916.516 118 920.416 118.833 923.616 120.5C926.816 122.1 929.282 124.467 931.016 127.6C932.749 130.667 933.616 134.4 933.616 138.8C933.616 145.133 932.449 150.767 930.116 155.7C927.782 160.633 924.482 164.5 920.216 167.3C915.949 170.1 910.916 171.5 905.116 171.5ZM906.616 165.2C911.016 165.2 914.916 164.167 918.316 162.1C921.782 159.967 924.482 157.033 926.416 153.3C928.416 149.567 929.416 145.333 929.416 140.6C929.416 135.4 927.882 131.367 924.816 128.5C921.816 125.633 917.582 124.2 912.116 124.2C907.782 124.2 903.882 125.267 900.416 127.4C896.949 129.533 894.216 132.467 892.216 136.2C890.282 139.867 889.316 144.1 889.316 148.9C889.316 154.033 890.816 158.033 893.816 160.9C896.882 163.767 901.149 165.2 906.616 165.2ZM923.916 171L926.916 155.9L929.916 145.3L930.916 134.3L934.116 118.5H941.216L930.716 171H923.916ZM950.489 171L960.889 118.5H967.989L957.589 171H950.489ZM967.489 106.9C966.089 106.9 964.922 106.433 963.989 105.5C963.122 104.567 962.689 103.467 962.689 102.2C962.689 100.733 963.189 99.4667 964.189 98.4C965.256 97.3333 966.589 96.8 968.189 96.8C969.589 96.8 970.756 97.2333 971.689 98.1C972.622 98.9667 973.089 100.067 973.089 101.4C973.089 103 972.556 104.333 971.489 105.4C970.422 106.4 969.089 106.9 967.489 106.9Z" fill="black"/>
<defs>
<linearGradient id="paint0_linear_1_10" x1="0" y1="37" x2="408" y2="37" gradientUnits="userSpaceOnUse">
<stop stop-color="#7392FF" stop-opacity="0"/>
<stop offset="0.0001" stop-color="#C200D6" stop-opacity="0.0573031"/>
<stop offset="1" stop-color="#0032E5"/>
<stop offset="1" stop-color="#0032E5"/>
<stop offset="1.0001" stop-color="#0038FF"/>
</linearGradient>
<linearGradient id="paint1_linear_1_10" x1="0" y1="127" x2="73" y2="127" gradientUnits="userSpaceOnUse">
<stop stop-color="#7392FF" stop-opacity="0"/>
<stop offset="0.0001" stop-color="#C200D6" stop-opacity="0.0573031"/>
<stop offset="1" stop-color="#0032E5"/>
<stop offset="1" stop-color="#0032E5"/>
<stop offset="1.0001" stop-color="#0038FF"/>
</linearGradient>
<linearGradient id="paint2_linear_1_10" x1="102" y1="127" x2="408" y2="127" gradientUnits="userSpaceOnUse">
<stop stop-color="#7392FF" stop-opacity="0"/>
<stop offset="0.0001" stop-color="#C200D6" stop-opacity="0.0573031"/>
<stop offset="1" stop-color="#0032E5"/>
<stop offset="1" stop-color="#0032E5"/>
<stop offset="1.0001" stop-color="#0038FF"/>
</linearGradient>
<linearGradient id="paint3_linear_1_10" x1="408" y1="291" x2="481" y2="291" gradientUnits="userSpaceOnUse">
<stop stop-color="#7392FF" stop-opacity="0"/>
<stop offset="0.0001" stop-color="#C200D6" stop-opacity="0.0573031"/>
<stop offset="1" stop-color="#0032E5"/>
<stop offset="1" stop-color="#0032E5"/>
<stop offset="1.0001" stop-color="#0038FF"/>
</linearGradient>
<linearGradient id="paint4_linear_1_10" x1="306" y1="291" x2="612" y2="291" gradientUnits="userSpaceOnUse">
<stop stop-color="#7392FF" stop-opacity="0"/>
<stop offset="0.0001" stop-color="#C200D6" stop-opacity="0.0573031"/>
<stop offset="1" stop-color="#0032E5"/>
<stop offset="1" stop-color="#0032E5"/>
<stop offset="1.0001" stop-color="#0038FF"/>
</linearGradient>
<linearGradient id="paint5_linear_1_10" x1="0" y1="37" x2="408" y2="37" gradientUnits="userSpaceOnUse">
<stop stop-color="#7392FF" stop-opacity="0"/>
<stop offset="0.0001" stop-color="#C200D6" stop-opacity="0.0573031"/>
<stop offset="1" stop-color="#0032E5"/>
<stop offset="1" stop-color="#0032E5"/>
<stop offset="1.0001" stop-color="#0038FF"/>
</linearGradient>
</defs>
</svg>
